<svg width="403" height="150" viewBox="0 0 403 150" fill="none" xmlns="http://www.w3.org/2000/svg">
<path d="M43.98 47.0901C45.08 45.8401 46.51 45.2101 47.2 44.9001C49.38 43.9301 51.33 43.8801 52.18 43.8701C59.78 43.7501 63.57 43.6901 66.81 43.8101C72.08 44.0101 70.45 43.6701 78.53 43.8101C80.57 43.8501 86.15 43.9601 92.92 43.5701C95.29 43.4301 98.55 43.1901 101.36 40.9001C102.28 40.1501 102.91 39.3801 103.3 38.8401C97.06 39.4701 91.84 39.4501 87.94 39.2601C86.03 39.1701 83.01 39.0201 79.08 38.4701C75.1 37.9201 74.01 37.4901 69.43 36.8901C66.31 36.4801 63.93 36.3001 62.02 36.1601C57.15 35.8001 54.72 35.6201 51.82 35.8001C47.31 36.0701 44.45 36.2501 41.32 38.1101C38.19 39.9701 36.47 42.5101 35.73 43.7601C33.98 46.7401 33.71 49.4401 33.42 52.6201C33.27 54.3001 33.05 58.1501 34.15 63.7901C35.07 68.4801 36.36 71.6701 38.52 76.9001C40.4 81.4501 41.98 84.6701 45.08 90.9201C49.09 99.0301 49.85 100.06 51.82 104.46C55.17 111.93 56.26 115.36 56.8 117.33C57.47 119.79 58.22 122.54 58.62 126.31C58.81 128.1 58.84 129.38 59.29 134.08C59.61 137.5 59.76 138.52 60.26 139.91C60.79 141.38 61.73 143.27 63.42 144.95C64.31 145.84 65.14 146.64 66.52 147.01C68.18 147.46 69.59 146.98 70.04 146.83C72.17 146.08 73.3 144.38 74.17 143.01C75.19 141.4 75.74 139.51 76.78 135.79C76.94 135.21 77.42 133.36 78.36 129.66C79.3 125.96 79.45 125.36 79.57 124.8C80 122.92 80.12 122.24 80.66 119.94C81.17 117.8 81.48 116.67 82.18 115.33C82.73 114.26 83.27 113.57 84 113.02C84.43 112.7 85.1 112.2 86.06 112.11C87.31 111.99 88.28 112.62 88.79 112.96C90.05 113.8 90.77 114.97 91.7 117.09C92.91 119.84 93.53 122.1 93.76 122.98C94.14 124.39 94.7 126.63 95.46 130.75C96.48 136.29 96.16 135.94 96.73 137.91C97.3 139.86 98.43 142.93 100.86 145.62C101.93 146.81 102.89 147.51 104.08 147.87C104.5 147.99 105.76 148.35 107.18 147.93C108.7 147.48 109.67 146.34 110.4 145.26C112.54 142.07 113.05 138.6 113.8 134.64C113.9 134.1 114.84 129.23 116.05 124.62C117.35 119.66 118.71 115.99 119.15 114.85C120.05 112.48 121.86 107.75 125.04 102.28C127.75 97.6301 128.26 97.9301 133.05 90.7501C136.55 85.5101 138.31 82.8801 140.21 78.8501C142.56 73.8801 143.58 70.0901 144.76 65.6801C146.24 60.1501 146.44 57.5201 146.1 54.8701C145.65 51.4001 144.48 49.4901 144.16 48.9801C142.11 45.7901 139.19 44.5301 138.64 44.3101C135.46 43.0001 132.64 43.4701 131.6 43.7001C132.36 44.1601 133.41 44.8301 134.64 45.7001C136.47 47.0101 137.39 47.6701 138.22 48.6101C140.08 50.7201 140.61 53.0901 140.77 53.8301C141.38 56.7201 140.72 59.1501 140.1 61.0501C138.03 67.4301 135.06 72.3701 133.79 74.4701C127.28 85.1701 126.65 86.1301 124.93 89.0401C121.86 94.2301 119.91 97.5401 117.58 102.34C115.72 106.18 113.72 110.34 111.93 116.12C110.59 120.45 109.83 122.97 109.44 126.68C108.96 131.2 107.61 135.62 107.44 140.16C107.42 140.67 107.38 142.01 106.53 142.53C105.68 143.05 104.39 142.65 103.62 142.04C102.91 141.49 102.71 140.72 102.35 139.19C101.75 136.71 101.45 135.48 101.38 134.82C100.91 130.77 99.84 126.86 99.26 124.74C97.99 120.13 96.6 117.42 96.1 116.48C94.07 112.68 92.52 111.5 91.91 111.08C90.91 110.38 88.9 108.99 86.39 109.32C83.37 109.72 81.61 112.34 80.87 113.45C80.13 114.55 79.78 115.48 78.62 119.7C77.77 122.78 77.44 124.17 76.92 126.14C76.54 127.56 75.25 131.15 72.67 138.28C72.52 138.68 71.89 140.38 70.3 141.74C69.71 142.25 68.85 142.96 67.99 142.77C67.13 142.58 66.64 141.56 66.17 140.16C65.16 137.12 65 134.51 64.9 132.21C64.72 128.11 64.78 127.93 64.66 126.08C64.44 122.81 64.05 120.35 63.81 118.92C62.87 113.21 61.42 108.56 60.53 105.99C58.76 100.86 58.32 101.39 52.27 88.7501C49.94 83.8901 47.88 79.3501 45.77 73.6301C44.64 70.5501 43.94 68.3301 43.34 65.8001C42.94 64.1001 41.95 59.5601 42.19 53.7801C42.35 49.9501 42.93 48.3301 44.01 47.1001L43.98 47.0901Z" fill="#86A9A7" stroke="#86A9A7" stroke-width="3.05" stroke-linejoin="round"/>
<path d="M139.91 89.37C139.71 89.52 140.37 90.57 141.98 94.02C142.02 94.1 141.85 93.75 143.66 97.75C144.92 100.53 145.48 101.72 146.29 103.56C147.74 106.88 148.62 109.2 150.37 113.78C152.7 119.9 153.86 122.96 154.7 126.01C156.23 131.62 156.69 133.48 156.69 133.48C156.95 134.56 157.3 136.01 157.92 137.97C158.51 139.82 158.8 140.75 159.31 141.78C160.25 143.7 161.29 145.84 163.56 146.94C165.1 147.69 166.56 147.65 167.89 147.62C168.87 147.59 170.7 147.54 172.54 146.55C173.55 146 174.69 145.1 176.35 142.42C178.18 139.46 179.1 136.84 179.8 134.64C180.48 132.53 181.45 129.31 182.7 124.08C183.83 119.33 184.02 117.82 185.16 113.68C185.88 111.08 186.75 108.36 186.75 108.36C187 107.24 187.32 106.36 187.58 105.74C187.89 105.02 188.07 104.6 188.45 104.11C189.21 103.14 190.1 102.71 190.36 102.6C190.68 102.45 191.38 102.15 192.31 102.16C193.5 102.18 194.36 102.71 194.93 103.07C196.17 103.86 196.86 104.85 197.15 105.29C199.15 108.28 200.26 111.76 200.45 112.36C201.4 115.41 201.99 117.92 202.59 120.66C203.04 122.68 203.05 122.98 203.55 125.13C204.1 127.48 204.57 129.25 205.06 131.07C205.86 134.05 206.26 135.54 206.57 136.3C206.98 137.33 207.96 139.56 209.79 141.93C211.11 143.64 212.07 144.4 212.41 144.65C213.67 145.6 214.8 146.05 215.23 146.21C215.95 146.48 216.93 146.84 218.25 146.86C220.22 146.9 221.65 146.18 221.97 146C222.91 145.5 223.74 144.8 224.74 143.48C226.51 141.15 227.32 138.87 227.96 136.94C229.28 132.97 229.53 131.55 230.42 128.64C230.88 127.14 231.77 124.82 233.54 120.24C235.73 114.56 236.82 111.72 237.87 109.32C238.97 106.8 240.34 103.66 242.4 99.86C243.3 98.2 243.94 97.14 248.64 89.85C254.17 81.26 255.09 79.94 256.99 76.62C257.91 75.01 259.61 71.98 261.47 67.97C263.46 63.67 264.09 61.54 264.39 60.47C264.71 59.31 265.3 56.95 265.6 53.93C265.88 51.11 265.98 46.86 264.9 41.76C264.75 44.01 264.39 46.91 263.59 50.21C262.15 56.11 260 60.31 259.21 61.78C258.73 62.67 257.28 64.87 254.38 69.28C251.16 74.16 250.82 74.54 249.1 77.28C247.78 79.39 246.71 81.22 244.57 84.88C242.05 89.19 240.8 91.34 240.19 92.48C239.56 93.66 236.47 99.53 233.55 107.62C232.77 109.79 232.86 109.71 231.34 114.06C229.72 118.68 229.37 119.43 228.27 122.71C227.53 124.91 226.93 126.72 226.16 129.25C225.71 130.74 225.04 133 223.85 135.84C223.54 136.57 222.89 138.08 221.54 139.61C220.34 140.97 219.54 141.26 219.18 141.37C217.81 141.77 216.61 141.29 216.31 141.17C215.36 140.77 214.68 139.97 213.34 137.1C212.16 134.56 211.49 132.55 211.43 132.37C210.22 128.72 209.38 125.9 209.17 125.18C207.79 120.56 206.59 117.09 206.2 115.97C205.94 115.24 204.75 111.83 202.88 107.52C202.08 105.67 201.29 103.96 199.86 102.04C197.87 99.35 196.49 98.72 195.79 98.47C194.25 97.92 192.9 98.1 192.47 98.17C190.73 98.46 189.59 99.37 188.85 99.98C187.22 101.32 186.37 102.86 185.73 104.16C184.08 107.51 183.32 110.28 182.61 112.81C180.81 119.28 181.72 115.71 179.99 122.02C179.48 123.87 178.71 126.54 177.17 131.88C176.84 133.01 176.01 135.84 174.15 139.02C173.13 140.78 172.36 141.67 171.18 142.19C170.98 142.28 168.96 143.14 166.9 142.19C165.54 141.56 164.89 140.49 164.13 139.22C163.33 137.89 163.02 136.74 162.57 134.99C161.78 131.9 161.41 130 161.16 128.9C160.99 128.14 160.63 126.75 158.19 121.1C157.24 118.91 156.08 116.32 153.36 110.59C152.34 108.44 150.69 104.99 148.43 100.63C147.11 98.07 145.94 95.91 143.95 93.39C142.28 91.27 140.23 89.15 139.92 89.38L139.91 89.37Z" fill="white" stroke="white" stroke-width="3.05" stroke-linejoin="round"/>
<path d="M127.37 67.65C126.93 67.79 124.7 61.74 124.47 61.13C123.97 59.79 123.36 58.11 122.72 55.82C122.48 54.95 121.78 52.4 121.21 48.97C120.45 44.4 120.33 40.84 120.3 39.67C120.22 36.51 120.17 34.02 120.75 30.7C121.08 28.84 121.67 25.62 123.59 21.89C125.18 18.78 126.95 16.75 128.28 15.26C129.6 13.76 131.86 11.25 135.54 8.88005C136.37 8.35005 139.68 6.28005 144.56 4.89005C147.2 4.14005 149.23 3.89005 151.33 3.65005C156.25 3.08005 159.99 3.24005 163.56 3.42005C166.87 3.58005 171.17 3.81005 176.64 4.89005C178.98 5.35005 184.39 6.53005 186.91 7.08005C187.87 7.29005 189.93 7.74005 192.73 8.06005C193.54 8.15005 194.72 8.27005 196.36 8.35005C200.03 8.54005 204.96 8.80005 211.01 7.76005C213.06 7.41005 212.6 7.36005 216.44 6.62005C218.24 6.27005 221.29 5.71005 225.01 5.18005C231.28 4.29005 234.41 3.85005 238.02 3.87005C241.07 3.89005 245.12 3.95005 249.97 5.55005C253.66 6.76005 255.75 8.19005 256.71 8.90005C257.68 9.62005 259.31 10.85 260.83 13.02C262.1 14.84 262.77 16.58 263.13 17.78C262.29 16.94 261.15 15.9 259.7 14.83C258.79 14.16 257.25 13.03 255.06 12.01C254.41 11.71 252.24 10.72 249.13 10.11C244.12 9.13005 240 9.75005 236.78 10.27C234.6 10.62 232.02 11.34 226.85 12.77C221.3 14.31 220.64 14.69 217.37 15.39C213.34 16.26 210.13 16.59 208.53 16.72C203.5 17.15 199.67 16.92 198.56 16.84C194.86 16.59 192.18 16.07 189.16 15.47C186.35 14.91 183.17 14.09 176.81 12.44C172.5 11.32 170.71 10.82 167.73 10.5C166.34 10.35 165.51 10.33 161.64 10.26C154.37 10.12 150.73 10.05 150.3 10.1C147.98 10.35 143.18 10.93 138.36 14.05C135.22 16.09 133.19 18.48 130.85 21.23C129.5 22.82 128.35 24.19 127.18 26.31C125.05 30.17 124.51 33.49 124.4 34.3C124.25 35.29 124.22 36.31 124.16 38.34C124.13 39.38 124.06 42.07 124.24 45.64C124.33 47.47 124.5 50.64 125.13 54.68C125.31 55.86 125.68 57.79 126.42 61.66C127.31 66.31 127.59 67.5601 127.39 67.62L127.37 67.65Z" fill="white" stroke="white" stroke-width="3.05" stroke-linecap="round" stroke-linejoin="round"/>
<path d="M344.33 123.84C344.25 121.03 344.26 116.11 344.52 112.46C344.9 107.22 345.92 103.22 346.7 100.23C348.18 94.55 349.88 90.59 352.2 85.25C355.64 77.32 356.64 76.62 359.88 68.84C361.72 64.42 362.94 61.45 364.05 57.18C365.76 50.59 366.75 46.78 365.57 41.91C365.29 40.76 363.85 35.31 359.12 31.1C357.21 29.4 355.37 28.44 351.91 26.64C349.54 25.41 347.57 24.39 344.7 23.61C343.37 23.25 340.76 22.63 337.4 22.57C334.5 22.52 332.42 22.91 328.39 23.71C326.2 24.14 323.28 24.8 319.86 25.8C320.82 25.01 322.22 23.96 324.03 22.95C324.94 22.45 327.34 21.18 331.62 20.1C334.5 19.37 337.98 18.5 342.53 18.68C349.93 18.97 355.28 21.87 357.89 23.33C359.91 24.46 362.67 26.02 365.48 29.02C366.61 30.22 368.9 32.72 370.51 36.7C372.13 40.71 372.12 44.1 372.12 47.61C372.12 52.2 371.34 55.62 371.08 56.71C370.72 58.19 370.16 60.06 367.48 65.91C365.44 70.35 364.38 72.29 360.84 79.38C358.26 84.55 356.96 87.16 356.29 88.77C354.22 93.7 352.96 97.91 351.93 101.38C350.86 104.99 350.3 106.86 349.75 109.63C348.72 114.77 348.53 118.89 348.42 121.48C348.04 130.35 348.1 133.83 348.1 133.83C348.11 134.62 348.14 136.15 347.7 138.1C347.23 140.17 346.6 142.92 344.48 144.22C341.88 145.81 338.47 144.31 337.15 143.74C336.36 143.39 333.83 142.19 329.82 136.74C327.82 134.02 326.65 131.87 325.31 129.41C324.05 127.11 321.27 122.2 318.47 116.93C317.68 115.44 316.72 114.05 315.89 112.58C315.03 111.05 314.47 109.99 313.23 108.96C312.53 108.38 311.74 107.72 310.65 107.67C309.82 107.63 308.75 107.95 307.19 109.6C305.1 111.8 304.23 114.17 303.33 116.76C301.92 120.82 301.24 123.17 300.51 125.37C300.31 125.97 300.27 126.04 297.21 133.98C295.33 138.85 294.79 140.25 293.43 142.19C291.49 144.96 289.95 145.86 289 146.3C288.2 146.66 286.42 147.48 284.41 147.02C281.77 146.42 280.34 143.97 279.1 141.79C277.15 138.35 276.56 135.34 276.12 133.26C275.17 128.72 273.91 124.25 272.82 119.74C270.93 111.92 268 105.68 267.02 103.48C264.31 97.38 259.79 90.7 260.31 90.34C260.66 90.1 264.16 94.23 265.56 95.71C266.55 96.76 267.63 98.06 268.55 99.38C270.38 101.99 271.31 104.25 272.41 106.95C273.84 110.45 274.56 113.17 275.55 116.85C276.55 120.58 277.1 122.66 277.64 125.7C278.24 129.11 278.29 130.74 279.33 133.67C280.07 135.77 280.88 137.28 281.99 138.66C283.06 140 283.76 140.74 284.65 141.24C285.31 141.61 286.46 142.25 287.55 141.96C289.14 141.55 289.83 139.37 290.29 137.85C291.67 133.28 292.37 131 293.11 127.22C294.27 121.35 296.04 117.16 297.13 114.58C299.2 109.7 300.29 107.22 303.01 105.16C303.64 104.68 308.16 101.26 312.11 102.83C313.74 103.48 314.72 104.91 316.62 107.74C318.65 110.78 319.79 113.27 320.73 115.31C323.56 121.46 324.98 124.54 325.8 126.1C325.8 126.1 328.56 131.32 332.72 136.4C332.81 136.51 334.39 138.41 336.99 140.18C338.29 141.07 339.24 141.51 340.37 141.63C340.96 141.69 342.54 141.86 343.51 140.91C344.11 140.31 344.23 139.53 344.32 138.33C344.5 135.9 344.36 134.49 344.32 132.61C344.27 130.29 344.43 130.24 344.4 126.57C344.39 125.24 344.36 124.3 344.35 123.84H344.33Z" fill="#228C8C" stroke="#228C8C" stroke-width="3.05" stroke-linejoin="round"/>
<path d="M251.04 67.6502C251.39 67.5002 250.24 65.0502 249.46 60.0002C249.08 57.5602 248.81 54.5802 248.88 51.2702C248.97 47.3002 249.02 44.8202 250.13 41.7002C250.44 40.8302 251.87 36.9802 255.54 33.3002C259.33 29.5002 263.37 28.0302 264.52 27.6402C268.79 26.2102 272.25 26.5102 277 26.9702C282.1 27.4702 281.74 28.1002 291.72 30.0502C298.99 31.4702 302.51 31.7802 305.86 31.8002C307.89 31.8102 309.65 31.7202 311.06 31.6002C311.4 31.5702 311.46 31.1102 311.14 30.9902C310 30.5702 308.61 30.0502 307.02 29.4702C300.85 27.2302 297.77 26.1102 295.21 25.3902C289.91 23.9102 285.7 23.3702 283.15 23.0602C279.3 22.5902 276.33 22.2202 272.25 22.4802C269.21 22.6702 266.19 22.8602 262.52 24.3102C258.64 25.8402 256.12 27.9402 254.62 29.2202C252.61 30.9302 249.86 33.2702 247.88 37.2902C246.32 40.4702 246 43.1602 245.63 46.1902C245.31 48.9002 244.87 52.7702 245.96 57.4202C247.33 63.2802 250.53 67.8602 251.03 67.6502H251.04Z" fill="#228C8C" stroke="#228C8C" stroke-width="3.05" stroke-miterlimit="10"/>
<path d="M179.88 81.8701C188.74 88.2701 197.61 88.2701 206.47 81.8701" stroke="white" stroke-width="3.19" stroke-linecap="round" stroke-linejoin="round"/>
<path d="M75.3599 96.45C82.7899 101.82 90.2299 101.82 97.6599 96.45" stroke="#86A9A7" stroke-width="2.55" stroke-linecap="round" stroke-linejoin="round"/>
<path d="M297.32 89.9102C304.75 95.2802 312.19 95.2802 319.62 89.9102" stroke="#228C8C" stroke-width="2.54" stroke-miterlimit="10" stroke-linecap="round"/>
<path d="M320.38 21.5201C320.38 21.5201 331.38 5.88006 344.16 1.18006C356.95 -3.51994 378.73 6.44006 384.69 18.6301C390.65 30.8201 389.63 68.4501 389.63 68.4501L383.09 70.0401L368.56 45.4901C368.56 45.4901 336.18 43.0101 320.37 21.5201H320.38Z" fill="#EA3B3B"/>
<path d="M375.3 41.5202C375.18 41.5202 375.05 41.5102 374.93 41.4602C374.43 41.2802 374.18 40.7302 374.36 40.2302C376.45 34.5402 376.59 23.4702 376.59 23.3602C376.59 22.8302 377.04 22.4102 377.56 22.4102C378.09 22.4102 378.51 22.8502 378.51 23.3802C378.51 23.8502 378.37 34.8902 376.16 40.8902C376.02 41.2602 375.68 41.5002 375.3 41.5202Z" fill="#CC3333"/>
<path d="M316.32 22.7899C315.12 26.8199 322.01 38.6699 336.26 47.2399C350.51 55.8099 370.39 62.1699 373.93 58.9799C377.47 55.7899 381.14 38.6599 375.53 36.7499C369.92 34.8399 363.29 36.7199 346.59 31.3999C329.89 26.0799 324.3 16.3299 321.76 16.2999C319.22 16.2699 316.75 21.3199 316.31 22.7899H316.32Z" fill="white"/>
<path d="M379.43 72.6999C377.73 70.9399 375.69 68.9699 376.63 68.2799C377.57 67.5899 381.49 70.3399 381.49 70.3399C381.49 70.3399 379.48 64.1499 380.63 63.2299C381.78 62.3099 385.13 67.3199 385.13 67.3199C385.13 67.3199 385.27 59.2299 388.46 59.0899C390.84 58.9799 390.82 65.8099 390.82 65.8099C390.82 65.8099 393.09 63.2599 393.74 63.3699C394.39 63.4799 393.47 66.9499 393.47 66.9499C393.47 66.9499 397.83 65.1699 398.52 66.1099C399.21 67.0499 396.2 69.9999 396.2 69.9999C396.2 69.9999 402.36 69.7199 402.45 71.6699C402.54 73.6199 396.37 73.7799 396.37 73.7799C396.37 73.7799 398.95 75.7399 398.54 76.1799C398.13 76.6199 394.65 76.3499 394.65 76.3499C394.65 76.3499 399.94 80.8699 398.26 81.9199C396.57 82.9699 392.39 78.9899 392.39 78.9899C392.39 78.9899 393.62 82.2299 392.24 82.8399C390.86 83.4499 389.85 79.4999 389.85 79.4999C389.85 79.4999 389.43 86.9699 386.96 86.6499C384.49 86.3299 384.96 79.7199 384.96 79.7199C384.96 79.7199 383.37 82.9099 382.04 82.3199C380.71 81.7299 381.35 78.9899 381.35 78.9899C381.35 78.9899 378.11 81.1899 376.9 79.6799C375.69 78.1699 379.82 76.2499 379.82 76.2499C379.82 76.2499 374.86 76.7999 374.67 74.9599C374.48 73.1299 379.44 72.6899 379.44 72.6899L379.43 72.6999Z" fill="white"/>
<path d="M68.9 35.3301C68.9 35.3301 59.37 22.2201 48.46 18.4101C37.56 14.6001 19.22 23.3401 14.33 33.7501C9.43997 44.1601 10.81 76.0501 10.81 76.0501L16.37 77.3101L28.36 56.3001C28.36 56.3001 55.78 53.7601 68.89 35.3201L68.9 35.3301Z" fill="#EA3B3B"/>
<path d="M22.6196 53.0301C22.7196 53.0301 22.8296 53.0201 22.9396 52.9801C23.3596 52.8201 23.5696 52.3501 23.4096 51.9301C21.5596 47.1301 21.2896 37.7501 21.2896 37.6601C21.2796 37.2101 20.8996 36.8601 20.4596 36.8701C20.0096 36.8801 19.6596 37.2601 19.6696 37.7001C19.6796 38.1001 19.9496 47.4601 21.8996 52.5101C22.0196 52.8301 22.3196 53.0201 22.6396 53.0301H22.6196Z" fill="#CC3333"/>
<path d="M72.3598 36.3501C73.4298 39.7501 67.7498 49.8901 55.7798 57.3501C43.8198 64.8101 27.0398 70.4701 23.9998 67.8101C20.9598 65.1501 17.6098 50.6801 22.3398 48.9801C27.0698 47.2801 32.7198 48.7901 46.7998 44.0501C60.8898 39.3201 65.4898 30.9701 67.6498 30.9201C69.7998 30.8601 71.9598 35.1101 72.3598 36.3501Z" fill="white"/>
<path d="M19.5299 79.5201C20.9499 78.0001 22.6499 76.3101 21.8399 75.7301C21.0299 75.1501 17.7499 77.5401 17.7499 77.5401C17.7499 77.5401 19.3699 72.2601 18.3799 71.5001C17.3899 70.7401 14.6199 75.0301 14.6199 75.0301C14.6199 75.0301 14.3899 68.1701 11.6899 68.0901C9.66987 68.0301 9.77987 73.8201 9.77987 73.8201C9.77987 73.8201 7.81987 71.6801 7.26987 71.7901C6.71987 71.9001 7.54987 74.8201 7.54987 74.8201C7.54987 74.8201 3.82987 73.3701 3.24987 74.1801C2.67987 74.9901 5.26987 77.4501 5.26987 77.4501C5.26987 77.4501 0.039868 77.3001 -0.000132044 78.9501C-0.050132 80.6001 5.17987 80.6601 5.17987 80.6601C5.17987 80.6601 3.01987 82.3601 3.37987 82.7301C3.73987 83.1001 6.67987 82.8301 6.67987 82.8301C6.67987 82.8301 2.24987 86.7301 3.69987 87.6001C5.13987 88.4701 8.63987 85.0301 8.63987 85.0301C8.63987 85.0301 7.63987 87.7901 8.81987 88.2901C9.99987 88.7901 10.7999 85.4301 10.7999 85.4301C10.7999 85.4301 11.2599 91.7601 13.3499 91.4501C15.4399 91.1401 14.9599 85.5501 14.9599 85.5501C14.9599 85.5501 16.3499 88.2401 17.4699 87.7201C18.5899 87.2001 18.0099 84.8901 18.0099 84.8901C18.0099 84.8901 20.7899 86.7101 21.7999 85.4101C22.8099 84.1101 19.2799 82.5401 19.2799 82.5401C19.2799 82.5401 23.4899 82.9401 23.6299 81.3801C23.7699 79.8201 19.5499 79.5201 19.5499 79.5201H19.5299Z" fill="white"/>
</svg>
