<svg width="300" height="50" viewBox="0 0 300 50" fill="none" xmlns="http://www.w3.org/2000/svg">
<g clip-path="url(#clip0_86_3769)">
<path d="M300 0H0V50H300V0Z" fill="#555C5C"/>
<path d="M234.333 17.5207C234.524 17.3133 234.777 17.2081 234.894 17.1585C235.276 16.9978 235.615 16.989 235.763 16.989C237.088 16.9686 237.754 16.9598 238.317 16.9802C239.239 17.0124 238.952 16.9569 240.364 16.9802C240.721 16.9861 241.695 17.0065 242.875 16.9393C243.288 16.916 243.858 16.8751 244.348 16.4982C244.508 16.3755 244.619 16.2469 244.687 16.1564C243.599 16.2615 242.684 16.2586 242.006 16.2265C241.673 16.2119 241.146 16.1856 240.459 16.095C239.763 16.0044 239.575 15.9343 238.774 15.835C238.228 15.7678 237.812 15.7386 237.479 15.7152C236.629 15.6568 236.204 15.6246 235.698 15.6538C234.909 15.6977 234.41 15.7269 233.865 16.0366C233.319 16.3433 233.017 16.764 232.888 16.9715C232.583 17.4652 232.534 17.9122 232.484 18.4381C232.46 18.7157 232.419 19.3526 232.611 20.2875C232.771 21.0646 232.996 21.5934 233.375 22.4582C233.701 23.212 233.979 23.7437 234.521 24.7809C235.221 26.1219 235.353 26.2943 235.698 27.0217C236.284 28.2576 236.475 28.8273 236.567 29.1516C236.684 29.5606 236.817 30.0134 236.885 30.6387C236.918 30.9367 236.925 31.147 237.002 31.9241C237.057 32.4909 237.085 32.6604 237.171 32.8883C237.264 33.1308 237.427 33.4434 237.723 33.7238C237.877 33.8699 238.022 34.0043 238.262 34.0657C238.552 34.1387 238.798 34.0627 238.878 34.0365C239.251 33.9137 239.445 33.6304 239.599 33.4025C239.778 33.1366 239.874 32.824 240.055 32.2075C240.083 32.1111 240.166 31.8044 240.33 31.1938C240.493 30.5831 240.521 30.4809 240.542 30.3903C240.619 30.0806 240.638 29.9667 240.733 29.5869C240.823 29.2334 240.875 29.0464 240.998 28.8244C241.094 28.6491 241.189 28.5322 241.316 28.4416C241.39 28.389 241.51 28.3072 241.676 28.2897C241.895 28.2692 242.065 28.3744 242.154 28.4299C242.373 28.5702 242.499 28.763 242.662 29.1136C242.872 29.5694 242.983 29.9433 243.023 30.0894C243.088 30.3231 243.186 30.6942 243.319 31.3749C243.498 32.2923 243.439 32.2338 243.541 32.5611C243.642 32.8854 243.836 33.3908 244.262 33.8378C244.45 34.0365 244.616 34.1504 244.823 34.2088C244.897 34.2293 245.115 34.2877 245.362 34.2176C245.627 34.1416 245.796 33.9547 245.923 33.7764C246.296 33.2476 246.385 32.6721 246.517 32.0176C246.536 31.93 246.699 31.1236 246.909 30.3582C247.137 29.5372 247.374 28.9295 247.448 28.7396C247.605 28.3452 247.923 27.5622 248.477 26.6595C248.949 25.8882 249.038 25.9378 249.876 24.7487C250.489 23.881 250.795 23.4457 251.127 22.7796C251.537 21.9557 251.716 21.3305 251.922 20.5972C252.181 19.6798 252.215 19.2474 252.157 18.8092C252.079 18.2336 251.873 17.9181 251.818 17.8333C251.46 17.3045 250.952 17.0971 250.853 17.0591C250.298 16.8429 249.805 16.9218 249.624 16.9598C249.756 17.0358 249.941 17.1468 250.154 17.2929C250.474 17.5091 250.634 17.6172 250.779 17.7749C251.106 18.1255 251.198 18.517 251.223 18.6397C251.331 19.1188 251.214 19.522 251.106 19.8346C250.745 20.8893 250.224 21.7103 250.003 22.055C248.865 23.8255 248.755 23.9862 248.456 24.4683C247.919 25.3272 247.581 25.8765 247.174 26.6682C246.847 27.3022 246.499 27.9917 246.188 28.95C245.953 29.6658 245.821 30.0836 245.753 30.7C245.67 31.4479 245.436 32.1812 245.402 32.9321C245.399 33.0168 245.393 33.2389 245.242 33.3236C245.094 33.4083 244.869 33.344 244.733 33.2418C244.61 33.1512 244.576 33.0227 244.511 32.7685C244.407 32.3595 244.354 32.152 244.342 32.0439C244.259 31.3749 244.074 30.7263 243.972 30.3757C243.75 29.6132 243.507 29.1633 243.42 29.0084C243.066 28.3803 242.795 28.1845 242.69 28.1144C242.515 28.0005 242.166 27.7667 241.726 27.8222C241.199 27.8894 240.891 28.3218 240.761 28.5059C240.632 28.687 240.57 28.8419 240.37 29.5401C240.222 30.0514 240.163 30.2793 240.074 30.6065C240.009 30.8432 239.781 31.4362 239.331 32.6166C239.307 32.6838 239.196 32.9642 238.918 33.1892C238.814 33.2739 238.666 33.3908 238.515 33.3586C238.364 33.3265 238.277 33.1571 238.197 32.9263C238.022 32.4237 237.994 31.9913 237.975 31.6086C237.945 30.9308 237.954 30.9016 237.932 30.5948C237.895 30.0543 237.824 29.6482 237.784 29.4087C237.621 28.4621 237.368 27.6937 237.211 27.2671C236.9 26.417 236.826 26.5075 235.769 24.4128C235.362 23.6093 235.002 22.8556 234.635 21.909C234.438 21.3977 234.315 21.0325 234.21 20.6118C234.139 20.3313 233.966 19.5805 234.01 18.6222C234.037 17.9882 234.139 17.7194 234.327 17.5178L234.333 17.5207Z" fill="#86A9A7" stroke="#86A9A7" stroke-width="1.73" stroke-linejoin="round"/>
<path d="M251.084 24.5208C251.05 24.5442 251.164 24.7195 251.445 25.2892C251.451 25.3038 251.42 25.2454 251.737 25.9056C251.956 26.3673 252.055 26.563 252.197 26.8668C252.449 27.4161 252.603 27.7988 252.908 28.5584C253.315 29.5722 253.519 30.0777 253.663 30.5831C253.931 31.5122 254.012 31.8189 254.012 31.8189C254.058 31.9972 254.116 32.2367 254.227 32.561C254.329 32.8678 254.381 33.0197 254.471 33.1921C254.634 33.5105 254.816 33.864 255.213 34.0481C255.481 34.1737 255.737 34.165 255.968 34.1591C256.141 34.1533 256.458 34.1474 256.779 33.9809C256.954 33.8903 257.155 33.7413 257.444 33.2973C257.765 32.8064 257.925 32.374 258.048 32.0088C258.169 31.6582 258.338 31.1265 258.554 30.2588C258.751 29.4729 258.785 29.2216 258.985 28.5351C259.111 28.1056 259.262 27.6528 259.262 27.6528C259.306 27.4687 259.361 27.3226 259.407 27.2174C259.46 27.0977 259.494 27.0305 259.558 26.9487C259.691 26.788 259.848 26.7178 259.891 26.6974C259.947 26.674 260.07 26.6244 260.23 26.6244C260.44 26.6244 260.588 26.7149 260.689 26.7763C260.905 26.9077 261.025 27.0714 261.077 27.1444C261.426 27.6381 261.62 28.2166 261.654 28.316C261.82 28.8214 261.922 29.2363 262.03 29.6891C262.107 30.0251 262.11 30.0747 262.199 30.4283C262.295 30.8168 262.378 31.109 262.464 31.4099C262.603 31.9037 262.674 32.1491 262.729 32.2747C262.803 32.4471 262.973 32.8152 263.29 33.2067C263.521 33.4901 263.688 33.6157 263.746 33.6566C263.965 33.8144 264.162 33.8874 264.239 33.9137C264.365 33.9575 264.538 34.0189 264.766 34.0218C265.108 34.0276 265.358 33.9079 265.416 33.8816C265.58 33.7998 265.724 33.6829 265.9 33.4638C266.208 33.0781 266.35 32.7013 266.461 32.3799C266.692 31.7225 266.735 31.4888 266.892 31.0067C266.972 30.7584 267.13 30.3757 267.438 29.6161C267.82 28.6753 268.011 28.2049 268.193 27.8076C268.384 27.3898 268.624 26.8698 268.985 26.2416C269.142 25.967 269.253 25.7917 270.075 24.5851C271.043 23.1623 271.2 22.9432 271.533 22.3939C271.693 22.128 271.992 21.6255 272.316 20.9623C272.664 20.2495 272.775 19.8989 272.824 19.7207C272.88 19.5278 272.984 19.1393 273.034 18.6367C273.083 18.1693 273.098 17.4652 272.91 16.6208C272.883 16.9948 272.821 17.474 272.682 18.0203C272.433 18.9961 272.057 19.6914 271.918 19.9368C271.835 20.0858 271.582 20.4481 271.074 21.1785C270.513 21.9878 270.451 22.0492 270.153 22.502C269.921 22.8497 269.733 23.1535 269.361 23.7583C268.92 24.4711 268.701 24.8276 268.596 25.0146C268.485 25.2103 267.946 26.1832 267.438 27.5213C267.302 27.8806 267.318 27.8689 267.053 28.5877C266.769 29.3531 266.707 29.4758 266.516 30.0192C266.387 30.3844 266.282 30.6824 266.147 31.1031C266.066 31.3515 265.949 31.7254 265.743 32.1929C265.687 32.3156 265.573 32.5639 265.339 32.8181C265.13 33.0431 264.991 33.0927 264.926 33.1103C264.686 33.1775 264.479 33.0986 264.424 33.0781C264.258 33.0109 264.141 32.8795 263.906 32.4033C263.7 31.9825 263.583 31.6495 263.574 31.6203C263.364 31.0155 263.216 30.548 263.179 30.4283C262.939 29.6628 262.729 29.0902 262.661 28.9032C262.618 28.7805 262.409 28.2166 262.082 27.5038C261.94 27.197 261.805 26.9136 261.555 26.5951C261.207 26.1511 260.967 26.0459 260.843 26.005C260.575 25.9144 260.338 25.9436 260.264 25.9553C259.959 26.0021 259.762 26.154 259.632 26.2562C259.349 26.4783 259.201 26.7325 259.087 26.9487C258.797 27.5038 258.665 27.9624 258.541 28.3802C258.227 29.4524 258.387 28.8594 258.085 29.9053C257.996 30.2121 257.863 30.6532 257.592 31.5385C257.534 31.7254 257.389 32.1929 257.065 32.7217C256.887 33.0139 256.751 33.1599 256.548 33.2476C256.511 33.2622 256.159 33.4054 255.802 33.2476C255.565 33.1453 255.451 32.9671 255.318 32.7568C255.179 32.5376 255.124 32.3477 255.047 32.0585C254.908 31.5472 254.844 31.2317 254.8 31.0506C254.77 30.9249 254.708 30.6941 254.283 29.7592C254.116 29.3969 253.916 28.9675 253.438 28.018C253.26 27.6615 252.973 27.0918 252.579 26.3702C252.348 25.9465 252.144 25.5872 251.796 25.1694C251.503 24.8188 251.146 24.4682 251.093 24.5062L251.084 24.5208Z" fill="white" stroke="white" stroke-width="1.73" stroke-linejoin="round"/>
<path d="M248.893 20.9244C248.816 20.9477 248.425 19.9456 248.388 19.8463C248.302 19.6243 248.194 19.3467 248.083 18.9669C248.04 18.8237 247.919 18.4001 247.818 17.8333C247.685 17.0766 247.664 16.4865 247.661 16.2936C247.648 15.7707 247.636 15.3587 247.741 14.8095C247.799 14.4998 247.901 13.9681 248.237 13.3516C248.514 12.8374 248.825 12.5014 249.057 12.2531C249.288 12.0048 249.682 11.587 250.323 11.1984C250.468 11.1108 251.047 10.7689 251.898 10.5381C252.36 10.4125 252.714 10.3716 253.081 10.3336C253.941 10.2372 254.594 10.2664 255.216 10.2956C255.796 10.3219 256.545 10.3599 257.5 10.5381C257.91 10.6141 258.853 10.8098 259.293 10.9004C259.46 10.9355 259.82 11.0085 260.31 11.064C260.452 11.0786 260.658 11.0991 260.945 11.1137C261.586 11.1458 262.446 11.1867 263.503 11.0173C263.86 10.9588 263.78 10.9501 264.452 10.8274C264.766 10.7689 265.299 10.6754 265.946 10.5878C267.04 10.4417 267.589 10.3658 268.217 10.3716C268.75 10.3745 269.456 10.3862 270.304 10.6491C270.948 10.8507 271.314 11.0874 271.481 11.2042C271.65 11.324 271.937 11.5285 272.199 11.885C272.421 12.1859 272.538 12.4751 272.599 12.6738C272.451 12.5336 272.254 12.3641 272.001 12.1859C271.841 12.0749 271.573 11.8879 271.191 11.7184C271.077 11.6688 270.698 11.5052 270.156 11.4058C269.28 11.2422 268.562 11.3474 267.999 11.4321C267.616 11.4906 267.167 11.6103 266.264 11.847C265.293 12.1012 265.179 12.1654 264.609 12.2823C263.903 12.4255 263.345 12.481 263.065 12.5014C262.187 12.5715 261.518 12.5336 261.324 12.5219C260.68 12.481 260.209 12.3933 259.682 12.294C259.192 12.2005 258.637 12.0661 257.525 11.7915C256.773 11.6074 256.458 11.5227 255.938 11.4701C255.694 11.4467 255.549 11.4409 254.874 11.4292C253.605 11.4058 252.97 11.3941 252.893 11.4029C252.489 11.4438 251.648 11.5402 250.807 12.0573C250.258 12.3933 249.904 12.7907 249.497 13.2464C249.26 13.5094 249.06 13.7373 248.856 14.0879C248.483 14.7277 248.391 15.2769 248.369 15.4113C248.345 15.5749 248.339 15.7444 248.326 16.0804C248.32 16.2527 248.308 16.6968 248.342 17.2899C248.357 17.5938 248.388 18.1196 248.496 18.7858C248.527 18.9815 248.591 19.3 248.721 19.9427C248.875 20.714 248.924 20.9214 248.89 20.9302L248.893 20.9244Z" fill="white" stroke="white" stroke-width="1.73" stroke-linecap="round" stroke-linejoin="round"/>
<path d="M286.78 30.2296C286.768 29.7651 286.768 28.9499 286.814 28.3452C286.882 27.4775 287.058 26.8172 287.196 26.3205C287.455 25.3798 287.751 24.7253 288.158 23.8401C288.759 22.5283 288.934 22.4114 289.498 21.123C289.819 20.3926 290.031 19.8989 290.225 19.1918C290.524 18.1021 290.697 17.471 290.49 16.6647C290.441 16.4748 290.192 15.572 289.366 14.8737C289.033 14.5933 288.709 14.4326 288.108 14.1346C287.696 13.9301 287.35 13.7635 286.851 13.6321C286.62 13.5707 286.161 13.4685 285.575 13.4597C285.067 13.4509 284.706 13.5152 284.001 13.6467C283.619 13.7168 283.11 13.8278 282.509 13.9914C282.676 13.8599 282.919 13.6876 283.237 13.521C283.394 13.4392 283.816 13.2289 284.562 13.0507C285.064 12.9309 285.671 12.7848 286.466 12.814C287.757 12.8637 288.694 13.3428 289.15 13.5824C289.504 13.7694 289.985 14.0265 290.475 14.5231C290.672 14.7218 291.073 15.1367 291.353 15.794C291.637 16.4572 291.634 17.0211 291.634 17.5996C291.634 18.3592 291.498 18.926 291.452 19.1071C291.387 19.3525 291.292 19.6622 290.823 20.6293C290.466 21.3655 290.281 21.6839 289.665 22.8584C289.215 23.7145 288.987 24.1468 288.87 24.4127C288.509 25.2308 288.287 25.9261 288.108 26.5016C287.921 27.1006 287.825 27.4103 287.726 27.8689C287.548 28.722 287.514 29.4028 287.495 29.8323C287.431 31.3018 287.44 31.8774 287.44 31.8774C287.44 32.0088 287.446 32.2601 287.369 32.5844C287.286 32.9262 287.178 33.382 286.808 33.5982C286.355 33.8611 285.76 33.6128 285.529 33.5193C285.391 33.4609 284.95 33.2622 284.25 32.3594C283.902 31.9095 283.696 31.5531 283.465 31.147C283.246 30.7642 282.759 29.952 282.269 29.0814C282.13 28.836 281.964 28.6052 281.819 28.3627C281.668 28.1085 281.573 27.9332 281.354 27.7638C281.234 27.6674 281.092 27.5593 280.904 27.5505C280.759 27.5447 280.574 27.5972 280.3 27.8689C279.936 28.2341 279.782 28.6256 279.625 29.0551C279.379 29.7271 279.258 30.1156 279.132 30.4808C279.098 30.5802 279.092 30.5919 278.556 31.9066C278.226 32.7129 278.134 32.9437 277.896 33.2651C277.557 33.7238 277.289 33.8728 277.123 33.9458C276.984 34.0072 276.673 34.1416 276.322 34.0656C275.859 33.9663 275.61 33.5602 275.394 33.1979C275.055 32.6282 274.95 32.1315 274.873 31.7839C274.707 31.033 274.488 30.2909 274.297 29.5459C273.967 28.2517 273.456 27.2174 273.286 26.8552C272.812 25.8443 272.023 24.7399 272.115 24.6786C272.177 24.6377 272.787 25.3213 273.034 25.5667C273.206 25.7391 273.394 25.9553 273.558 26.1744C273.878 26.6068 274.041 26.9808 274.232 27.4278C274.482 28.0063 274.608 28.4591 274.781 29.0668C274.957 29.6832 275.052 30.028 275.148 30.5334C275.252 31.0973 275.262 31.369 275.443 31.854C275.573 32.2017 275.715 32.4529 275.909 32.6808C276.097 32.9028 276.217 33.0255 276.374 33.1073C276.491 33.1687 276.692 33.2739 276.879 33.2271C277.157 33.1599 277.277 32.7977 277.357 32.5464C277.597 31.7897 277.721 31.4128 277.85 30.7876C278.05 29.8147 278.362 29.1223 278.553 28.6958C278.913 27.8865 279.104 27.4775 279.579 27.1356C279.69 27.0567 280.479 26.49 281.166 26.75C281.452 26.8581 281.622 27.0947 281.952 27.5622C282.306 28.0647 282.506 28.4796 282.67 28.8155C283.163 29.8352 283.412 30.3435 283.554 30.6006C283.554 30.6006 284.038 31.4654 284.762 32.3068C284.777 32.3244 285.055 32.6399 285.508 32.9321C285.736 33.0781 285.902 33.1512 286.099 33.1716C286.204 33.1833 286.478 33.2096 286.648 33.0518C286.753 32.9525 286.774 32.824 286.79 32.6253C286.82 32.2221 286.796 31.9884 286.79 31.6787C286.78 31.293 286.808 31.2872 286.805 30.6795C286.805 30.4604 286.799 30.3026 286.796 30.2267L286.78 30.2296Z" fill="#228C8C" stroke="#228C8C" stroke-width="1.73" stroke-linejoin="round"/>
<path d="M270.488 20.9243C270.55 20.901 270.35 20.4949 270.211 19.6564C270.146 19.2532 270.097 18.7594 270.109 18.2102C270.125 17.5528 270.134 17.1438 270.328 16.6267C270.384 16.4835 270.633 15.8437 271.271 15.236C271.934 14.6079 272.639 14.3625 272.84 14.2982C273.585 14.0615 274.189 14.1112 275.018 14.1872C275.909 14.269 275.844 14.3742 277.588 14.6955C278.858 14.9293 279.474 14.9818 280.056 14.9848C280.411 14.9848 280.719 14.9702 280.966 14.9526C281.024 14.9468 281.036 14.8708 280.981 14.8504C280.784 14.7803 280.54 14.6955 280.263 14.5991C279.188 14.2281 278.648 14.044 278.201 13.9242C277.277 13.6788 276.54 13.5912 276.094 13.5386C275.422 13.4597 274.901 13.3983 274.189 13.4422C273.656 13.4743 273.132 13.5064 272.488 13.746C271.81 14.0002 271.37 14.3479 271.108 14.5582C270.756 14.8416 270.276 15.2273 269.931 15.8934C269.659 16.4193 269.601 16.8663 269.539 17.3659C269.484 17.8129 269.407 18.4556 269.598 19.224C269.838 20.1939 270.396 20.9536 270.485 20.9185L270.488 20.9243Z" fill="#228C8C" stroke="#228C8C" stroke-width="1.73" stroke-miterlimit="10"/>
<path d="M258.064 23.2792C259.611 24.3397 261.161 24.3397 262.708 23.2792" stroke="white" stroke-width="1.81" stroke-linecap="round" stroke-linejoin="round"/>
<path d="M239.812 25.6924C241.109 26.5805 242.41 26.5805 243.707 25.6924" stroke="#86A9A7" stroke-width="1.45" stroke-linecap="round" stroke-linejoin="round"/>
<path d="M278.571 24.6114C279.869 25.4996 281.169 25.4996 282.466 24.6114" stroke="#228C8C" stroke-width="1.44" stroke-miterlimit="10" stroke-linecap="round"/>
<path d="M74.6094 33.0723C73.1734 32.2572 72.0425 31.1177 71.2228 29.6599C70.4031 28.202 69.9933 26.5221 69.9933 24.6201C69.9933 22.7182 70.4062 21.0646 71.2382 19.595C72.0671 18.1255 73.1981 16.9831 74.6248 16.168C76.0515 15.3529 77.657 14.9439 79.4381 14.9439C80.7323 14.9439 81.9125 15.1688 82.9757 15.6217C84.0388 16.0745 84.9448 16.7202 85.6936 17.5645V10.9413H90.399V33.9751H85.7829V31.6436C85.0341 32.488 84.1158 33.1395 83.0342 33.6011C81.9526 34.0627 80.7508 34.2935 79.435 34.2935C77.6539 34.2935 76.0423 33.8845 74.6063 33.0694L74.6094 33.0723ZM75.5215 27.5593C75.9868 28.4036 76.6339 29.0551 77.4659 29.5167C78.2949 29.9783 79.247 30.2091 80.3194 30.2091C81.3918 30.2091 82.344 29.9783 83.176 29.5167C84.0049 29.0551 84.652 28.4036 85.1204 27.5593C85.5857 26.7149 85.8199 25.7362 85.8199 24.6231C85.8199 23.5099 85.5857 22.5604 85.1204 21.7161C84.6551 20.8718 84.0049 20.2144 83.176 19.744C82.347 19.2736 81.3949 19.0399 80.3194 19.0399C79.244 19.0399 78.2949 19.2766 77.4659 19.744C76.637 20.2144 75.9868 20.8718 75.5215 21.7161C75.0562 22.5604 74.822 23.5304 74.822 24.6231C74.822 25.7157 75.0531 26.7149 75.5215 27.5593Z" fill="white"/>
<path d="M98.9348 33.084C97.3971 32.2776 96.1953 31.147 95.3356 29.6862C94.4758 28.2283 94.0444 26.5571 94.0444 24.6756C94.0444 22.7941 94.4851 21.085 95.3664 19.6096C96.2477 18.1313 97.468 16.986 99.0241 16.168C100.583 15.3529 102.355 14.9438 104.34 14.9438C106.324 14.9438 108.167 15.3762 109.745 16.241C111.322 17.1058 112.543 18.2803 113.402 19.7674C114.262 21.2545 114.694 22.911 114.694 24.7341C114.694 25.1752 114.663 25.6252 114.604 26.0868H98.9625C99.1258 27.3547 99.7175 28.3744 100.741 29.1544C101.764 29.9316 102.944 30.3201 104.278 30.3201C105.35 30.3201 106.349 30.066 107.27 29.5576C108.192 29.0493 108.863 28.3539 109.289 27.4687H114.268C113.581 29.581 112.355 31.2463 110.592 32.4646C108.833 33.6829 106.706 34.2935 104.213 34.2935C102.229 34.2935 100.466 33.8903 98.9286 33.084H98.9348ZM109.563 22.6042C109.178 21.4707 108.524 20.5737 107.606 19.9135C106.685 19.2503 105.615 18.9201 104.401 18.9201C103.187 18.9201 102.053 19.2503 101.123 19.9135C100.192 20.5767 99.5449 21.4824 99.1782 22.6335L109.563 22.6042Z" fill="white"/>
<path d="M118.342 15.2623H123.051V17.6522C123.334 16.9802 123.957 16.3608 124.918 15.794C125.879 15.2272 127.069 14.9438 128.486 14.9438C129.984 14.9438 131.337 15.2857 132.542 15.9664C133.747 16.6471 134.699 17.6083 135.395 18.8471C136.095 20.0858 136.443 21.4999 136.443 23.0951V33.978H131.707V23.1798C131.707 21.9118 131.312 20.8922 130.523 20.1121C129.734 19.335 128.69 18.9464 127.396 18.9464C126.101 18.9464 125.057 19.335 124.268 20.1121C123.479 20.8893 123.085 21.9118 123.085 23.1798V33.978H118.345V15.2623H118.342Z" fill="white"/>
<path d="M142.513 19.2941H138.868V15.2623H142.513V10.9442H147.253V15.2623H150.867V19.2941H147.253V33.978H142.513V19.2941Z" fill="white"/>
<path d="M171.396 33.978H166.688V31.5881C166.404 32.2601 165.782 32.8795 164.82 33.4463C163.859 34.0131 162.67 34.2965 161.252 34.2965C159.754 34.2965 158.402 33.9546 157.197 33.2739C155.992 32.5932 155.04 31.632 154.34 30.3932C153.641 29.1545 153.293 27.7404 153.293 26.1452V15.2623H158.032V26.0605C158.032 27.3285 158.426 28.3481 159.215 29.1282C160.004 29.9053 161.049 30.2939 162.343 30.2939C163.637 30.2939 164.682 29.9053 165.471 29.1282C166.26 28.351 166.654 27.3285 166.654 26.0605V15.2623H171.393V33.978H171.396Z" fill="white"/>
<path d="M176.256 15.2623H180.934V17.9385C181.257 17.2665 181.849 16.6179 182.709 15.9956C183.568 15.3704 184.616 15.0227 185.852 14.9438V19.4928C184.373 19.4928 183.192 19.9251 182.314 20.7899C181.433 21.6547 180.992 22.8058 180.992 24.2462V33.978H176.253V15.2623H176.256Z" fill="white"/>
<path d="M192.563 33.084C191.026 32.2776 189.824 31.147 188.964 29.6862C188.104 28.2283 187.673 26.5571 187.673 24.6756C187.673 22.7941 188.114 21.085 188.995 19.6096C189.876 18.1313 191.096 16.986 192.653 16.168C194.212 15.3529 195.984 14.9438 197.968 14.9438C199.953 14.9438 201.795 15.3762 203.373 16.241C204.951 17.1058 206.171 18.2803 207.031 19.7674C207.891 21.2545 208.322 22.911 208.322 24.7341C208.322 25.1752 208.291 25.6252 208.233 26.0868H192.591C192.754 27.3547 193.346 28.3744 194.369 29.1544C195.392 29.9316 196.572 30.3201 197.907 30.3201C198.979 30.3201 199.977 30.066 200.899 29.5576C201.82 29.0493 202.492 28.3539 202.917 27.4687H207.897C207.21 29.581 205.983 31.2463 204.221 32.4646C202.461 33.6829 200.335 34.2935 197.842 34.2935C195.857 34.2935 194.095 33.8903 192.557 33.084H192.563ZM203.191 22.6042C202.806 21.4707 202.153 20.5737 201.235 19.9135C200.313 19.2503 199.244 18.9201 198.03 18.9201C196.816 18.9201 195.682 19.2503 194.751 19.9135C193.821 20.5767 193.173 21.4824 192.807 22.6335L203.191 22.6042Z" fill="white"/>
<path d="M214.55 33.4024C213.336 32.8094 212.399 31.9738 211.739 30.8987C211.08 29.8235 210.753 28.5964 210.753 27.2116H215.431C215.431 28.1348 215.761 28.8857 216.417 29.4729C217.074 30.0572 217.93 30.3494 218.984 30.3494C219.773 30.3494 220.472 30.1858 221.08 29.8586C221.687 29.5313 221.992 29.0727 221.992 28.4767C221.992 27.9216 221.764 27.5125 221.308 27.2525C220.851 26.9925 220.097 26.7208 219.046 26.4315C218.62 26.3351 218.204 26.2212 217.801 26.0868L217.101 25.8852C215.866 25.52 214.873 25.1665 214.125 24.8218C213.376 24.477 212.732 23.9628 212.196 23.2821C211.659 22.6014 211.391 21.7015 211.391 20.5884C211.391 19.4753 211.684 18.4527 212.273 17.5791C212.858 16.7056 213.675 16.0249 214.716 15.534C215.758 15.0432 216.96 14.8007 218.315 14.8007C219.671 14.8007 220.972 15.0549 222.096 15.5633C223.221 16.0716 224.106 16.7816 224.753 17.6931C225.4 18.6046 225.723 19.6272 225.723 20.7608H221.076C221.076 20.1852 220.83 19.709 220.334 19.335C219.838 18.9611 219.224 18.7741 218.497 18.7741C217.81 18.7741 217.243 18.9318 216.796 19.2503C216.349 19.5658 216.128 19.9836 216.128 20.5037C216.128 21.0237 216.349 21.3772 216.796 21.6255C217.243 21.8768 217.992 22.1543 219.043 22.4611C219.144 22.4816 219.428 22.5575 219.893 22.6919C221.452 23.1535 222.648 23.545 223.477 23.8722C224.306 24.1995 225.039 24.7224 225.677 25.4411C226.315 26.1598 226.635 27.1269 226.635 28.3364C226.635 29.546 226.303 30.6006 225.634 31.5034C224.965 32.4062 224.035 33.0957 222.839 33.5777C221.643 34.0569 220.278 34.2965 218.738 34.2965C217.197 34.2965 215.761 33.9985 214.547 33.4024H214.55Z" fill="white"/>
<path d="M11.3553 36.8061C12.135 36.0786 12.5232 35.1379 12.5232 33.9897V15.9898H14.7049V33.9897C14.7049 35.0999 14.4368 36.0874 13.9007 36.9522C13.3645 37.8169 12.6157 38.4948 11.6573 38.9943C10.6959 39.4939 9.59887 39.7423 8.36627 39.7423V37.9017C9.58039 37.9017 10.5726 37.5365 11.3523 36.809L11.3553 36.8061ZM12.5232 10.988H14.7049V12.9163H12.5232V10.988Z" fill="#228C8C"/>
<path d="M36.7839 33.9867H34.6022V30.364C34.0352 31.5531 33.1354 32.5055 31.9028 33.2242C30.6702 33.9429 29.2342 34.3023 27.5949 34.3023C25.9555 34.3023 24.4517 33.9488 23.1359 33.2388C21.8232 32.5289 20.794 31.5414 20.0575 30.2763C19.3179 29.0113 18.9512 27.5622 18.9512 25.9349V15.2974H21.1021V26.0196C21.1021 27.2671 21.3918 28.3773 21.968 29.356C22.5443 30.3348 23.3424 31.0944 24.3624 31.6407C25.3854 32.187 26.5502 32.4588 27.866 32.4588C29.1818 32.4588 30.3466 32.187 31.3666 31.6407C32.3897 31.0944 33.1816 30.3318 33.7486 29.356C34.3125 28.3802 34.5991 27.2671 34.5991 26.0196V15.2974H36.7808V33.9867H36.7839Z" fill="#228C8C"/>
<path d="M43.8621 33.3995C42.759 32.7947 41.9116 31.9592 41.3137 30.884C40.719 29.8089 40.4201 28.5847 40.4201 27.2028H42.6049C42.6049 28.7542 43.0702 30.0222 43.9977 30.998C44.9283 31.9767 46.1702 32.4646 47.7294 32.4646C48.9836 32.4646 50.0498 32.1432 50.928 31.5005C51.8063 30.8577 52.2469 30.0485 52.2469 29.0726C52.2469 28.4591 52.0744 27.9566 51.7323 27.5622C51.3872 27.1707 50.9589 26.8581 50.4442 26.6273C49.9296 26.3965 49.2055 26.1277 48.2749 25.8209L47.335 25.5054C45.899 25.0263 44.802 24.6085 44.044 24.255C43.2859 23.9014 42.6234 23.3785 42.0564 22.689C41.4894 21.9995 41.2059 21.088 41.2059 19.9573C41.2059 18.4059 41.7513 17.1643 42.8422 16.2323C43.933 15.3032 45.369 14.8387 47.1501 14.8387C48.3827 14.8387 49.489 15.0899 50.472 15.5866C51.4519 16.0862 52.2192 16.7786 52.7769 17.6726C53.3316 18.5637 53.612 19.5746 53.612 20.7052H51.4272C51.4272 19.5161 51.0328 18.5491 50.2439 17.8012C49.4551 17.0532 48.4443 16.6793 47.2117 16.6793C46.0593 16.6793 45.1286 16.9685 44.423 17.5441C43.7142 18.1196 43.3629 18.9055 43.3629 19.9018C43.3629 20.6672 43.5694 21.2866 43.9854 21.757C44.3983 22.2274 44.8914 22.5809 45.4553 22.8205C46.0192 23.06 46.919 23.3814 48.1547 23.7846L48.7617 23.9862C49.9943 24.3893 50.9866 24.7604 51.7354 25.1081C52.4842 25.4528 53.1159 25.9378 53.6305 26.5601C54.1451 27.1824 54.404 27.9829 54.404 28.9616C54.404 29.9404 54.1112 30.8928 53.5227 31.7079C52.9341 32.523 52.1267 33.1599 51.0975 33.6216C50.0652 34.0802 48.9127 34.311 47.6401 34.311C46.2257 34.311 44.9653 34.0101 43.8652 33.4054L43.8621 33.3995Z" fill="#228C8C"/>
<path d="M60.5269 17.138H56.222V15.3003H60.5269V10.988H62.7117V15.3003H67.0196V17.138H62.7117V33.9868H60.5269V17.138Z" fill="#228C8C"/>
</g>
<defs>
<clipPath id="clip0_86_3769">
<rect width="300" height="50" rx="10" fill="white"/>
</clipPath>
</defs>
</svg>
