<svg width="328" height="145" viewBox="0 0 328 145" fill="none" xmlns="http://www.w3.org/2000/svg">
<g clip-path="url(#clip0_86_4273)">
<path d="M99.45 133.77C97.29 132.48 95.6 130.68 94.37 128.37C93.14 126.06 92.52 123.4 92.52 120.39C92.52 117.38 93.14 114.76 94.39 112.43C95.64 110.1 97.33 108.3 99.47 107C101.61 105.71 104.02 105.06 106.7 105.06C108.64 105.06 110.42 105.42 112.01 106.13C113.61 106.84 114.97 107.87 116.09 109.21V98.72H123.16V135.2H116.23V131.51C115.11 132.85 113.73 133.88 112.1 134.61C110.47 135.34 108.67 135.71 106.7 135.71C104.02 135.71 101.61 135.06 99.45 133.77ZM100.82 125.04C101.52 126.38 102.49 127.41 103.74 128.14C104.99 128.87 106.41 129.24 108.03 129.24C109.65 129.24 111.07 128.88 112.32 128.14C113.57 127.41 114.54 126.38 115.24 125.04C115.94 123.7 116.29 122.15 116.29 120.39C116.29 118.63 115.94 117.12 115.24 115.79C114.54 114.45 113.57 113.41 112.32 112.67C111.07 111.93 109.64 111.55 108.03 111.55C106.42 111.55 104.99 111.92 103.74 112.67C102.49 113.42 101.52 114.46 100.82 115.79C100.12 117.12 99.77 118.66 99.77 120.39C99.77 122.12 100.12 123.7 100.82 125.04Z" fill="#494949"/>
<path d="M135.97 133.79C133.66 132.51 131.86 130.72 130.57 128.41C129.28 126.1 128.63 123.46 128.63 120.48C128.63 117.5 129.29 114.8 130.61 112.46C131.93 110.12 133.76 108.3 136.1 107.01C138.44 105.72 141.1 105.07 144.08 105.07C147.06 105.07 149.82 105.75 152.2 107.12C154.57 108.49 156.4 110.35 157.69 112.71C158.98 115.07 159.63 117.69 159.63 120.58C159.63 121.28 159.58 121.99 159.49 122.72H136.01C136.25 124.73 137.14 126.34 138.68 127.58C140.21 128.81 141.99 129.43 143.99 129.43C145.6 129.43 147.1 129.03 148.48 128.22C149.86 127.41 150.87 126.31 151.51 124.91H158.99C157.96 128.25 156.12 130.89 153.47 132.82C150.83 134.75 147.63 135.72 143.9 135.72C140.92 135.72 138.28 135.08 135.97 133.8V133.79ZM151.93 117.19C151.35 115.4 150.37 113.98 148.99 112.93C147.61 111.88 146 111.36 144.18 111.36C142.36 111.36 140.65 111.88 139.26 112.93C137.86 113.98 136.89 115.42 136.34 117.24L151.93 117.19Z" fill="#494949"/>
<path d="M165.11 105.57H172.18V109.35C172.6 108.29 173.54 107.31 174.98 106.41C176.42 105.51 178.21 105.06 180.34 105.06C182.59 105.06 184.62 105.6 186.43 106.68C188.24 107.76 189.67 109.28 190.72 111.24C191.77 113.2 192.29 115.44 192.29 117.96V135.2H185.18V118.1C185.18 116.09 184.59 114.48 183.4 113.24C182.21 112.01 180.65 111.39 178.7 111.39C176.75 111.39 175.19 112.01 174 113.24C172.81 114.47 172.22 116.09 172.22 118.1V135.2H165.11V105.56V105.57Z" fill="#494949"/>
<path d="M201.4 111.95H195.93V105.57H201.4V98.73H208.51V105.57H213.94V111.95H208.51V135.2H201.4V111.95Z" fill="#494949"/>
<path d="M244.76 135.2H237.69V131.42C237.26 132.49 236.33 133.46 234.89 134.36C233.45 135.26 231.66 135.71 229.53 135.71C227.28 135.71 225.25 135.17 223.44 134.09C221.63 133.01 220.2 131.49 219.15 129.53C218.1 127.57 217.58 125.33 217.58 122.8V105.57H224.69V122.67C224.69 124.68 225.28 126.29 226.47 127.53C227.66 128.76 229.22 129.38 231.17 129.38C233.12 129.38 234.68 128.77 235.87 127.53C237.06 126.3 237.65 124.68 237.65 122.67V105.57H244.76V135.21V135.2Z" fill="#494949"/>
<path d="M252.06 105.57H259.08V109.81C259.57 108.75 260.45 107.72 261.75 106.73C263.05 105.74 264.62 105.19 266.47 105.07V112.27C264.25 112.27 262.48 112.95 261.16 114.32C259.84 115.69 259.18 117.51 259.18 119.79V135.2H252.07V105.56L252.06 105.57Z" fill="#494949"/>
<path d="M276.54 133.79C274.23 132.51 272.43 130.72 271.14 128.41C269.85 126.1 269.2 123.46 269.2 120.48C269.2 117.5 269.86 114.8 271.18 112.46C272.5 110.12 274.33 108.3 276.67 107.01C279.01 105.72 281.67 105.07 284.65 105.07C287.63 105.07 290.39 105.75 292.77 107.12C295.14 108.49 296.97 110.35 298.26 112.71C299.55 115.07 300.2 117.69 300.2 120.58C300.2 121.28 300.15 121.99 300.06 122.72H276.58C276.82 124.73 277.71 126.34 279.25 127.58C280.78 128.81 282.56 129.43 284.56 129.43C286.17 129.43 287.67 129.03 289.05 128.22C290.43 127.41 291.44 126.31 292.08 124.91H299.56C298.53 128.25 296.69 130.89 294.04 132.82C291.4 134.75 288.2 135.72 284.47 135.72C281.49 135.72 278.85 135.08 276.54 133.8V133.79ZM292.5 117.19C291.92 115.4 290.94 113.98 289.56 112.93C288.18 111.88 286.57 111.36 284.75 111.36C282.93 111.36 281.22 111.88 279.83 112.93C278.43 113.98 277.46 115.42 276.91 117.24L292.5 117.19Z" fill="#494949"/>
<path d="M309.55 134.29C307.73 133.35 306.32 132.03 305.33 130.32C304.34 128.62 303.85 126.67 303.85 124.48H310.87C310.87 125.94 311.36 127.13 312.35 128.06C313.34 128.99 314.62 129.45 316.2 129.45C317.39 129.45 318.43 129.19 319.35 128.67C320.26 128.15 320.72 127.42 320.72 126.48C320.72 125.6 320.38 124.95 319.69 124.54C319.01 124.13 317.87 123.7 316.29 123.24C315.65 123.09 315.03 122.91 314.42 122.69L313.37 122.37C311.52 121.79 310.03 121.23 308.9 120.68C307.77 120.13 306.81 119.32 306 118.24C305.19 117.16 304.79 115.74 304.79 113.98C304.79 112.22 305.23 110.6 306.11 109.22C306.99 107.84 308.21 106.76 309.78 105.98C311.35 105.2 313.15 104.82 315.18 104.82C317.21 104.82 319.17 105.22 320.86 106.03C322.55 106.84 323.88 107.96 324.85 109.4C325.82 110.84 326.31 112.46 326.31 114.26H319.33C319.33 113.35 318.96 112.6 318.21 112C317.47 111.41 316.55 111.11 315.45 111.11C314.42 111.11 313.57 111.36 312.9 111.86C312.23 112.36 311.9 113.02 311.9 113.84C311.9 114.66 312.23 115.22 312.9 115.62C313.57 116.02 314.69 116.46 316.27 116.94C316.42 116.97 316.85 117.09 317.55 117.3C319.89 118.03 321.68 118.65 322.93 119.17C324.18 119.69 325.28 120.52 326.23 121.66C327.19 122.8 327.67 124.33 327.67 126.24C327.67 128.15 327.17 129.83 326.17 131.26C325.17 132.69 323.77 133.78 321.97 134.54C320.18 135.3 318.12 135.68 315.81 135.68C313.5 135.68 311.34 135.21 309.52 134.27L309.55 134.29Z" fill="#494949"/>
<path d="M4.47999 139.68C5.64999 138.53 6.22999 137.04 6.22999 135.22V106.72H9.50999V135.22C9.50999 136.98 9.10999 138.54 8.29999 139.91C7.48999 141.28 6.36999 142.35 4.92999 143.14C3.48999 143.93 1.83999 144.32 -0.0100098 144.32V141.41C1.80999 141.41 3.29999 140.83 4.46999 139.68H4.47999ZM6.22999 98.79H9.50999V101.84H6.22999V98.79Z" fill="#228C8C"/>
<path d="M42.6599 135.22H39.3799V129.48C38.5299 131.36 37.1799 132.87 35.3299 134.01C33.4799 135.15 31.3199 135.72 28.8599 135.72C26.3999 135.72 24.1399 135.16 22.1699 134.04C20.1999 132.92 18.6599 131.35 17.5499 129.35C16.4399 127.35 15.8899 125.05 15.8899 122.47V105.62H19.1199V122.6C19.1199 124.57 19.5499 126.33 20.4199 127.88C21.2899 129.43 22.4799 130.63 24.0199 131.5C25.5499 132.37 27.3099 132.8 29.2799 132.8C31.2499 132.8 33.0099 132.37 34.5399 131.5C36.0699 130.63 37.2699 129.43 38.1199 127.88C38.9699 126.33 39.3899 124.57 39.3899 122.6V105.62H42.6699V135.21L42.6599 135.22Z" fill="#228C8C"/>
<path d="M53.2899 134.29C51.6399 133.33 50.3599 132.01 49.4699 130.31C48.5799 128.61 48.1299 126.67 48.1299 124.48H51.4099C51.4099 126.94 52.1099 128.94 53.4999 130.49C54.8999 132.04 56.7599 132.81 59.0999 132.81C60.9799 132.81 62.5799 132.3 63.8999 131.29C65.2199 130.27 65.8799 128.99 65.8799 127.44C65.8799 126.47 65.6199 125.67 65.1099 125.05C64.5899 124.43 63.9499 123.93 63.1699 123.57C62.3999 123.21 61.3099 122.78 59.9099 122.29L58.4999 121.79C56.3499 121.03 54.6999 120.37 53.5599 119.81C52.4199 119.25 51.4299 118.42 50.5799 117.33C49.7299 116.24 49.3099 114.8 49.3099 113C49.3099 110.54 50.1299 108.58 51.7699 107.1C53.4099 105.63 55.5599 104.89 58.2399 104.89C60.0899 104.89 61.7499 105.29 63.2299 106.07C64.6999 106.86 65.8599 107.96 66.6899 109.37C67.5199 110.78 67.9399 112.38 67.9399 114.17H64.6599C64.6599 112.29 64.0699 110.76 62.8899 109.57C61.7099 108.39 60.1899 107.79 58.3399 107.79C56.6099 107.79 55.2099 108.25 54.1499 109.16C53.0899 110.07 52.5599 111.31 52.5599 112.89C52.5599 114.1 52.8699 115.08 53.4899 115.83C54.1099 116.57 54.8499 117.14 55.6999 117.51C56.5499 117.89 57.8999 118.4 59.7499 119.04L60.6599 119.36C62.5099 120 63.9999 120.59 65.1199 121.13C66.2399 121.68 67.1899 122.44 67.9699 123.43C68.7399 124.42 69.1299 125.68 69.1299 127.23C69.1299 128.78 68.6899 130.29 67.8099 131.58C66.9299 132.87 65.7099 133.88 64.1699 134.61C62.6199 135.34 60.8899 135.7 58.9799 135.7C56.8599 135.7 54.9699 135.22 53.3099 134.27L53.2899 134.29Z" fill="#228C8C"/>
<path d="M78.3101 108.54H71.8501V105.63H78.3101V98.8H81.5901V105.63H88.0601V108.54H81.5901V135.22H78.3101V108.54Z" fill="#228C8C"/>
<path d="M76.4102 27.6001C77.0502 26.8701 77.9002 26.5001 78.3002 26.3201C79.5802 25.7501 80.7202 25.7201 81.2202 25.7201C85.6702 25.6501 87.9002 25.6101 89.7902 25.6801C92.8802 25.8001 91.9202 25.6001 96.6602 25.6801C97.8502 25.7001 101.13 25.7701 105.09 25.5401C106.48 25.4601 108.39 25.3201 110.04 23.9701C110.58 23.5301 110.95 23.0801 111.18 22.7601C107.53 23.1301 104.46 23.1201 102.18 23.0101C101.06 22.9601 99.2902 22.8701 96.9902 22.5501C94.6602 22.2301 94.0202 21.9801 91.3302 21.6201C89.5002 21.3801 88.1102 21.2801 86.9902 21.1901C84.1402 20.9801 82.7102 20.8701 81.0102 20.9801C78.3702 21.1401 76.6902 21.2401 74.8502 22.3301C73.0202 23.4201 72.0102 24.9101 71.5802 25.6401C70.5502 27.3901 70.3902 28.9701 70.2302 30.8301C70.1402 31.8101 70.0102 34.0701 70.6602 37.3801C71.2002 40.1301 71.9602 42.0001 73.2202 45.0701C74.3202 47.7401 75.2502 49.6301 77.0602 53.2901C79.4102 58.0401 79.8502 58.6501 81.0102 61.2201C82.9702 65.6001 83.6102 67.6101 83.9302 68.7601C84.3202 70.2001 84.7602 71.8201 85.0002 74.0301C85.1102 75.0801 85.1302 75.8301 85.3902 78.5801C85.5802 80.5901 85.6602 81.1801 85.9602 82.0001C86.2702 82.8601 86.8202 83.9701 87.8102 84.9501C88.3302 85.4701 88.8202 85.9401 89.6202 86.1601C90.6002 86.4201 91.4202 86.1501 91.6802 86.0501C92.9302 85.6101 93.5902 84.6101 94.1002 83.8101C94.7002 82.8701 95.0202 81.7601 95.6302 79.5801C95.7302 79.2401 96.0002 78.1501 96.5602 75.9901C97.1102 73.8201 97.2002 73.4701 97.2702 73.1401C97.5202 72.0401 97.5902 71.6401 97.9102 70.2901C98.2102 69.0401 98.3902 68.3801 98.8002 67.5901C99.1302 66.9601 99.4402 66.5601 99.8702 66.2401C100.12 66.0501 100.52 65.7601 101.08 65.7101C101.81 65.6401 102.38 66.0101 102.68 66.2101C103.42 66.7001 103.84 67.3901 104.39 68.6301C105.1 70.2401 105.46 71.5701 105.6 72.0801C105.82 72.9101 106.15 74.2201 106.6 76.6301C107.2 79.8801 107.01 79.6701 107.35 80.8301C107.69 81.9701 108.35 83.7701 109.77 85.3501C110.4 86.0501 110.96 86.4601 111.66 86.6701C111.9 86.7401 112.64 86.9501 113.47 86.7101C114.36 86.4401 114.93 85.7801 115.36 85.1401C116.61 83.2701 116.91 81.2301 117.35 78.9101C117.41 78.6001 117.96 75.7401 118.67 73.0401C119.43 70.1301 120.23 67.9801 120.48 67.3101C121.01 65.9201 122.07 63.1501 123.93 59.9401C125.52 57.2101 125.81 57.3901 128.63 53.1801C130.68 50.1101 131.71 48.5701 132.83 46.2101C134.21 43.3001 134.8 41.0801 135.5 38.4901C136.37 35.2501 136.48 33.7101 136.28 32.1601C136.02 30.1201 135.33 29.0101 135.14 28.7101C133.94 26.8401 132.23 26.1001 131.9 25.9701C130.04 25.2001 128.39 25.4801 127.77 25.6101C128.21 25.8801 128.83 26.2701 129.55 26.7801C130.62 27.5501 131.16 27.9301 131.65 28.4901C132.74 29.7301 133.05 31.1101 133.14 31.5501C133.5 33.2501 133.11 34.6701 132.75 35.7801C131.54 39.5201 129.8 42.4201 129.05 43.6401C125.23 49.9101 124.86 50.4701 123.86 52.1801C122.06 55.2201 120.92 57.1601 119.55 59.9701C118.46 62.2201 117.29 64.6601 116.24 68.0501C115.46 70.5901 115.01 72.0701 114.78 74.2401C114.5 76.8901 113.71 79.4801 113.61 82.1401C113.6 82.4401 113.58 83.2201 113.08 83.5301C112.58 83.8301 111.83 83.6001 111.37 83.2501C110.95 82.9301 110.84 82.4801 110.62 81.5801C110.27 80.1301 110.1 79.4001 110.05 79.0201C109.77 76.6501 109.15 74.3501 108.8 73.1101C108.06 70.4101 107.24 68.8201 106.95 68.2701C105.76 66.0401 104.85 65.3501 104.49 65.1001C103.9 64.6901 102.73 63.8701 101.25 64.0701C99.4802 64.3001 98.4502 65.8401 98.0102 66.4901C97.5802 67.1301 97.3702 67.6801 96.6902 70.1501C96.1902 71.9601 96.0002 72.7701 95.6902 73.9201C95.4702 74.7501 94.7102 76.8601 93.2002 81.0401C93.1102 81.2801 92.7402 82.2701 91.8102 83.0701C91.4602 83.3701 90.9602 83.7901 90.4602 83.6701C89.9602 83.5601 89.6702 82.9601 89.3902 82.1401C88.8002 80.3601 88.7002 78.8301 88.6402 77.4801C88.5302 75.0801 88.5702 74.9701 88.5002 73.8901C88.3702 71.9801 88.1402 70.5301 88.0002 69.6901C87.4502 66.3401 86.6002 63.6201 86.0802 62.1101C85.0402 59.1001 84.7902 59.4201 81.2402 52.0101C79.8802 49.1601 78.6602 46.5001 77.4302 43.1501C76.7702 41.3401 76.3602 40.0401 76.0102 38.5601C75.7802 37.5601 75.2002 34.9001 75.3302 31.5201C75.4202 29.2701 75.7602 28.3301 76.4002 27.6101L76.4102 27.6001Z" fill="#86A9A7" stroke="#86A9A7" stroke-width="1.79" stroke-linejoin="round"/>
<path d="M132.63 52.3803C132.51 52.4703 132.9 53.0803 133.84 55.1003C133.86 55.1503 133.76 54.9403 134.82 57.2903C135.56 58.9203 135.89 59.6203 136.36 60.7003C137.21 62.6503 137.73 64.0003 138.75 66.6903C140.12 70.2803 140.8 72.0703 141.29 73.8603C142.19 77.1503 142.45 78.2402 142.45 78.2402C142.61 78.8802 142.81 79.7203 143.17 80.8703C143.52 81.9603 143.69 82.5003 143.98 83.1003C144.53 84.2303 145.14 85.4802 146.47 86.1302C147.37 86.5702 148.23 86.5503 149.01 86.5303C149.59 86.5103 150.66 86.4803 151.73 85.9003C152.32 85.5803 152.99 85.0503 153.96 83.4803C155.03 81.7503 155.57 80.2103 155.98 78.9202C156.38 77.6802 156.95 75.8003 157.68 72.7303C158.34 69.9503 158.46 69.0602 159.12 66.6302C159.54 65.1003 160.05 63.5103 160.05 63.5103C160.19 62.8603 160.38 62.3403 160.54 61.9703C160.72 61.5503 160.83 61.3003 161.05 61.0203C161.49 60.4503 162.02 60.2003 162.17 60.1403C162.36 60.0503 162.77 59.8803 163.31 59.8803C164.01 59.8803 164.51 60.2002 164.85 60.4202C165.58 60.8802 165.98 61.4603 166.15 61.7203C167.32 63.4703 167.97 65.5103 168.08 65.8603C168.64 67.6403 168.98 69.1203 169.34 70.7203C169.6 71.9103 169.61 72.0802 169.9 73.3402C170.22 74.7202 170.5 75.7503 170.78 76.8203C171.25 78.5703 171.49 79.4403 171.66 79.8903C171.9 80.5003 172.47 81.8003 173.55 83.1903C174.32 84.1903 174.89 84.6403 175.08 84.7803C175.82 85.3302 176.48 85.6003 176.73 85.6903C177.15 85.8503 177.73 86.0603 178.5 86.0703C179.65 86.0903 180.49 85.6702 180.68 85.5703C181.23 85.2803 181.72 84.8703 182.3 84.1003C183.34 82.7303 183.81 81.4002 184.19 80.2702C184.96 77.9402 185.11 77.1103 185.63 75.4103C185.9 74.5303 186.42 73.1702 187.46 70.4902C188.74 67.1602 189.38 65.5002 190 64.0902C190.64 62.6202 191.45 60.7703 192.65 58.5503C193.18 57.5803 193.55 56.9603 196.31 52.6803C199.55 47.6503 200.09 46.8703 201.2 44.9303C201.74 43.9903 202.74 42.2103 203.82 39.8603C204.98 37.3403 205.36 36.0903 205.53 35.4703C205.72 34.7903 206.06 33.4103 206.24 31.6403C206.4 29.9803 206.46 27.5003 205.83 24.5103C205.74 25.8303 205.53 27.5303 205.06 29.4603C204.22 32.9203 202.96 35.3803 202.5 36.2403C202.22 36.7603 201.37 38.0503 199.67 40.6303C197.78 43.4903 197.58 43.7103 196.57 45.3203C195.79 46.5603 195.17 47.6303 193.92 49.7703C192.45 52.3003 191.71 53.5603 191.36 54.2203C190.99 54.9103 189.18 58.3503 187.47 63.0903C187.01 64.3603 187.07 64.3203 186.17 66.8603C185.22 69.5703 185.02 70.0103 184.37 71.9303C183.94 73.2203 183.58 74.2803 183.13 75.7603C182.86 76.6403 182.47 77.9603 181.77 79.6203C181.59 80.0503 181.21 80.9303 180.41 81.8303C179.71 82.6303 179.24 82.8003 179.02 82.8603C178.22 83.1003 177.52 82.8203 177.34 82.7402C176.78 82.5103 176.38 82.0402 175.6 80.3503C174.91 78.8602 174.51 77.6803 174.48 77.5803C173.77 75.4403 173.28 73.7903 173.15 73.3603C172.34 70.6503 171.64 68.6203 171.41 67.9603C171.26 67.5303 170.56 65.5303 169.46 63.0103C168.99 61.9203 168.53 60.9303 167.69 59.8003C166.52 58.2203 165.72 57.8503 165.3 57.7103C164.4 57.3903 163.61 57.4902 163.35 57.5303C162.33 57.7002 161.66 58.2303 161.23 58.5903C160.28 59.3803 159.78 60.2803 159.4 61.0403C158.43 63.0003 157.99 64.6303 157.57 66.1103C156.51 69.9003 157.05 67.8103 156.04 71.5103C155.74 72.5903 155.29 74.1603 154.39 77.2903C154.2 77.9503 153.71 79.6103 152.62 81.4803C152.02 82.5103 151.57 83.0302 150.88 83.3402C150.76 83.3902 149.58 83.8902 148.37 83.3402C147.57 82.9702 147.19 82.3403 146.75 81.6003C146.28 80.8203 146.1 80.1503 145.84 79.1203C145.38 77.3103 145.16 76.1903 145.01 75.5503C144.91 75.1003 144.7 74.2903 143.27 70.9803C142.71 69.6903 142.04 68.1803 140.44 64.8203C139.84 63.5603 138.87 61.5403 137.55 58.9803C136.77 57.4803 136.09 56.2103 134.93 54.7303C133.95 53.4903 132.75 52.2503 132.57 52.3803H132.63Z" fill="#494949" stroke="#494949" stroke-width="1.79" stroke-linejoin="round"/>
<path d="M125.28 39.6502C125.02 39.7302 123.71 36.1902 123.58 35.8302C123.29 35.0402 122.93 34.0602 122.55 32.7202C122.41 32.2102 122 30.7202 121.67 28.7002C121.22 26.0202 121.16 23.9402 121.14 23.2502C121.1 21.4002 121.06 19.9402 121.41 18.0002C121.6 16.9102 121.95 15.0202 123.07 12.8302C124 11.0102 125.04 9.82018 125.82 8.94018C126.6 8.06018 127.92 6.59018 130.07 5.20018C130.56 4.89018 132.5 3.68018 135.36 2.86018C136.91 2.42018 138.1 2.28018 139.33 2.13018C142.21 1.79018 144.4 1.89018 146.5 2.00018C148.44 2.10018 150.96 2.23018 154.17 2.86018C155.54 3.13018 158.71 3.82018 160.19 4.14018C160.75 4.26018 161.96 4.53018 163.6 4.71018C164.08 4.76018 164.76 4.83018 165.73 4.88018C167.88 4.99018 170.77 5.14018 174.31 4.54018C175.51 4.33018 175.24 4.31018 177.49 3.87018C178.54 3.67018 180.33 3.34018 182.51 3.03018C186.18 2.51018 188.02 2.25018 190.14 2.26018C191.93 2.27018 194.3 2.31018 197.14 3.24018C199.3 3.95018 200.53 4.79018 201.09 5.20018C201.66 5.62018 202.62 6.34018 203.5 7.61018C204.25 8.68018 204.64 9.70018 204.85 10.4002C204.36 9.91018 203.69 9.30018 202.84 8.67018C202.31 8.28018 201.4 7.62018 200.12 7.01018C199.74 6.83018 198.47 6.26018 196.64 5.90018C193.7 5.32018 191.29 5.69018 189.4 5.99018C188.12 6.20018 186.61 6.62018 183.58 7.46018C180.33 8.36018 179.94 8.59018 178.02 9.00018C175.66 9.51018 173.78 9.70018 172.84 9.78018C169.89 10.0302 167.65 9.90018 167 9.85018C164.83 9.70018 163.26 9.40018 161.49 9.05018C159.84 8.72018 157.98 8.24018 154.25 7.28018C151.72 6.63018 150.67 6.33018 148.93 6.14018C148.12 6.05018 147.63 6.04018 145.36 6.00018C141.1 5.92018 138.97 5.88018 138.71 5.91018C137.35 6.06018 134.54 6.40018 131.71 8.23018C129.87 9.42018 128.68 10.8302 127.31 12.4402C126.52 13.3702 125.84 14.1802 125.16 15.4202C123.91 17.6802 123.6 19.6302 123.53 20.1002C123.44 20.6802 123.43 21.2802 123.39 22.4702C123.37 23.0802 123.33 24.6602 123.44 26.7502C123.49 27.8202 123.59 29.6802 123.96 32.0502C124.07 32.7402 124.28 33.8702 124.72 36.1402C125.24 38.8702 125.4 39.6002 125.29 39.6302L125.28 39.6502Z" fill="#494949" stroke="#494949" stroke-width="1.79" stroke-linecap="round" stroke-linejoin="round"/>
<path d="M252.44 72.5802C252.4 70.9302 252.4 68.0502 252.55 65.9102C252.77 62.8402 253.37 60.5002 253.83 58.7402C254.7 55.4102 255.69 53.0902 257.05 49.9602C259.07 45.3102 259.65 44.9002 261.55 40.3402C262.63 37.7502 263.34 36.0102 264 33.5002C265 29.6402 265.58 27.4102 264.89 24.5502C264.73 23.8802 263.88 20.6802 261.11 18.2102C259.99 17.2202 258.91 16.6502 256.89 15.6002C255.5 14.8802 254.35 14.2802 252.67 13.8202C251.89 13.6102 250.36 13.2402 248.39 13.2102C246.69 13.1802 245.47 13.4102 243.11 13.8802C241.83 14.1302 240.12 14.5202 238.11 15.1002C238.67 14.6402 239.49 14.0202 240.56 13.4302C241.09 13.1402 242.5 12.3902 245.01 11.7602C246.7 11.3302 248.74 10.8202 251.4 10.9302C255.74 11.1002 258.87 12.8002 260.4 13.6502C261.59 14.3102 263.2 15.2302 264.85 16.9802C265.51 17.6902 266.85 19.1502 267.8 21.4802C268.75 23.8302 268.74 25.8202 268.74 27.8702C268.74 30.5602 268.29 32.5602 268.13 33.2102C267.92 34.0802 267.59 35.1702 266.02 38.6002C264.82 41.2002 264.2 42.3402 262.13 46.4902C260.62 49.5202 259.86 51.0502 259.46 51.9902C258.25 54.8802 257.51 57.3502 256.9 59.3802C256.27 61.5002 255.95 62.5902 255.62 64.2202C255.02 67.2302 254.91 69.6502 254.84 71.1702C254.62 76.3702 254.65 78.4102 254.65 78.4102C254.65 78.8702 254.68 79.7702 254.41 80.9102C254.13 82.1202 253.76 83.7402 252.52 84.5002C251 85.4302 249 84.5602 248.23 84.2202C247.77 84.0202 246.28 83.3102 243.94 80.1202C242.77 78.5302 242.08 77.2702 241.3 75.8302C240.56 74.4802 238.93 71.6002 237.29 68.5202C236.83 67.6502 236.27 66.8302 235.78 65.9702C235.28 65.0802 234.95 64.4502 234.22 63.8502C233.81 63.5102 233.34 63.1202 232.71 63.1002C232.23 63.0802 231.6 63.2602 230.68 64.2302C229.46 65.5202 228.94 66.9102 228.42 68.4302C227.59 70.8102 227.19 72.1902 226.77 73.4802C226.65 73.8302 226.63 73.8802 224.84 78.5302C223.74 81.3902 223.42 82.2002 222.62 83.3402C221.48 84.9602 220.58 85.4902 220.03 85.7502C219.56 85.9602 218.52 86.4402 217.34 86.1702C215.79 85.8202 214.95 84.3902 214.23 83.1002C213.09 81.0902 212.74 79.3202 212.48 78.1002C211.92 75.4402 211.18 72.8202 210.55 70.1702C209.44 65.5902 207.73 61.9302 207.15 60.6402C205.56 57.0702 202.91 53.1502 203.22 52.9402C203.42 52.8002 205.48 55.2202 206.3 56.0902C206.88 56.7002 207.51 57.4702 208.05 58.2402C209.12 59.7702 209.67 61.0902 210.31 62.6702C211.15 64.7202 211.57 66.3202 212.15 68.4702C212.74 70.6602 213.06 71.8702 213.38 73.6602C213.73 75.6602 213.76 76.6202 214.37 78.3302C214.81 79.5602 215.28 80.4502 215.93 81.2602C216.56 82.0402 216.97 82.4802 217.49 82.7702C217.88 82.9902 218.55 83.3602 219.19 83.1902C220.12 82.9502 220.52 81.6702 220.79 80.7802C221.6 78.1002 222.01 76.7602 222.44 74.5502C223.12 71.1102 224.16 68.6602 224.8 67.1402C226.01 64.2802 226.65 62.8302 228.24 61.6202C228.61 61.3402 231.26 59.3402 233.57 60.2502C234.53 60.6302 235.1 61.4702 236.21 63.1302C237.4 64.9102 238.07 66.3702 238.62 67.5602C240.28 71.1702 241.11 72.9702 241.59 73.8802C241.59 73.8802 243.21 76.9402 245.65 79.9202C245.7 79.9902 246.63 81.1002 248.15 82.1402C248.91 82.6602 249.47 82.9202 250.13 82.9902C250.48 83.0302 251.4 83.1302 251.97 82.5702C252.32 82.2202 252.39 81.7602 252.44 81.0602C252.54 79.6302 252.46 78.8102 252.44 77.7102C252.41 76.3502 252.51 76.3202 252.49 74.1702C252.49 73.3902 252.47 72.8402 252.46 72.5702L252.44 72.5802Z" fill="#228C8C" stroke="#228C8C" stroke-width="1.79" stroke-linejoin="round"/>
<path d="M197.76 39.6502C197.97 39.5602 197.29 38.1302 196.83 35.1602C196.61 33.7302 196.45 31.9802 196.49 30.0402C196.54 27.7202 196.57 26.2602 197.22 24.4302C197.4 23.9202 198.24 21.6602 200.39 19.5102C202.61 17.2802 204.98 16.4202 205.66 16.1902C208.16 15.3502 210.19 15.5302 212.97 15.8002C215.96 16.0902 215.75 16.4602 221.6 17.6002C225.86 18.4302 227.93 18.6102 229.89 18.6202C231.08 18.6202 232.11 18.5702 232.94 18.5002C233.14 18.4802 233.18 18.2102 232.99 18.1402C232.32 17.8902 231.51 17.5902 230.58 17.2502C226.97 15.9402 225.16 15.2802 223.66 14.8602C220.56 13.9902 218.08 13.6802 216.59 13.4902C214.33 13.2102 212.59 13.0002 210.2 13.1502C208.42 13.2602 206.65 13.3702 204.5 14.2202C202.22 15.1202 200.75 16.3502 199.87 17.1002C198.69 18.1002 197.08 19.4702 195.92 21.8302C195.01 23.6902 194.82 25.2702 194.6 27.0502C194.41 28.6402 194.16 30.9102 194.79 33.6302C195.59 37.0602 197.47 39.7502 197.76 39.6302V39.6502Z" fill="#228C8C" stroke="#228C8C" stroke-width="1.79" stroke-miterlimit="10"/>
<path d="M156.06 47.9802C161.25 51.7302 166.45 51.7302 171.64 47.9802" stroke="#494949" stroke-width="1.87" stroke-linecap="round" stroke-linejoin="round"/>
<path d="M94.8003 56.5203C99.1603 59.6703 103.51 59.6703 107.87 56.5203" stroke="#86A9A7" stroke-width="1.5" stroke-linecap="round" stroke-linejoin="round"/>
<path d="M224.89 52.7002C229.25 55.8502 233.6 55.8502 237.96 52.7002" stroke="#228C8C" stroke-width="1.49" stroke-miterlimit="10" stroke-linecap="round"/>
<path d="M238.4 12.6101C238.4 12.6101 244.84 3.44006 252.34 0.690065C259.83 -2.05994 272.6 3.78007 276.09 10.9201C279.58 18.0601 278.99 40.1201 278.99 40.1201L275.16 41.0501L266.64 26.6601C266.64 26.6601 247.66 25.2101 238.4 12.6101Z" fill="#EA3B3B"/>
<path d="M270.59 24.3401C270.52 24.3401 270.44 24.3401 270.37 24.3101C270.08 24.2001 269.93 23.8801 270.04 23.5901C271.26 20.2501 271.35 13.7701 271.35 13.7001C271.35 13.3901 271.61 13.1401 271.92 13.1401C272.23 13.1401 272.48 13.4001 272.48 13.7101C272.48 13.9801 272.4 20.4601 271.1 23.9701C271.02 24.1901 270.82 24.3301 270.6 24.3401H270.59Z" fill="#CC3333"/>
<path d="M236.02 13.3601C235.32 15.7201 239.36 22.6701 247.71 27.6901C256.06 32.7101 267.72 36.4401 269.79 34.5701C271.86 32.7001 274.02 22.6602 270.73 21.5402C267.44 20.4202 263.56 21.5201 253.77 18.4001C243.98 15.2801 240.71 9.57015 239.22 9.55015C237.73 9.53015 236.28 12.4901 236.03 13.3501L236.02 13.3601Z" fill="#494949"/>
<path d="M273.01 42.6101C272.01 41.5801 270.82 40.4201 271.37 40.0201C271.92 39.6201 274.22 41.2301 274.22 41.2301C274.22 41.2301 273.04 37.6001 273.72 37.0601C274.39 36.5201 276.36 39.4601 276.36 39.4601C276.36 39.4601 276.44 34.7201 278.31 34.6301C279.7 34.5701 279.69 38.5701 279.69 38.5701C279.69 38.5701 281.02 37.0701 281.4 37.1401C281.78 37.2101 281.24 39.2401 281.24 39.2401C281.24 39.2401 283.8 38.2001 284.2 38.7501C284.61 39.3001 282.84 41.0301 282.84 41.0301C282.84 41.0301 286.45 40.8701 286.5 42.0101C286.55 43.1501 282.94 43.2501 282.94 43.2501C282.94 43.2501 284.45 44.4001 284.21 44.6601C283.97 44.9201 281.93 44.7601 281.93 44.7601C281.93 44.7601 285.03 47.4101 284.04 48.0201C283.05 48.6401 280.6 46.3001 280.6 46.3001C280.6 46.3001 281.32 48.2001 280.51 48.5601C279.7 48.9201 279.11 46.6001 279.11 46.6001C279.11 46.6001 278.86 50.9801 277.42 50.7901C275.97 50.6001 276.25 46.7301 276.25 46.7301C276.25 46.7301 275.32 48.6001 274.54 48.2601C273.76 47.9101 274.14 46.3101 274.14 46.3101C274.14 46.3101 272.24 47.6001 271.53 46.7101C270.82 45.8201 273.24 44.7001 273.24 44.7001C273.24 44.7001 270.33 45.0201 270.22 43.9501C270.11 42.8801 273.02 42.6201 273.02 42.6201L273.01 42.6101Z" fill="#494949"/>
<path d="M91.0202 20.71C91.0202 20.71 85.4302 13.03 79.0402 10.79C72.6502 8.56002 61.9102 13.68 59.0402 19.78C56.1702 25.88 56.9802 44.57 56.9802 44.57L60.2402 45.31L67.2702 33C67.2702 33 83.3402 31.51 91.0202 20.71Z" fill="#EA3B3B"/>
<path d="M63.89 31.08C63.95 31.08 64.01 31.08 64.07 31.05C64.32 30.96 64.44 30.68 64.34 30.43C63.26 27.62 63.1 22.12 63.1 22.06C63.1 21.8 62.87 21.59 62.61 21.6C62.35 21.6 62.14 21.83 62.15 22.09C62.15 22.32 62.31 27.81 63.46 30.77C63.53 30.95 63.7 31.07 63.89 31.08Z" fill="#CC3333"/>
<path d="M93.0401 21.3001C93.6701 23.2901 90.3401 29.2401 83.3301 33.6101C76.3201 37.9801 66.4901 41.3001 64.7001 39.7401C62.9201 38.1801 60.9501 29.7001 63.7301 28.7101C66.5001 27.7101 69.8101 28.6001 78.0701 25.8201C86.3301 23.0501 89.0301 18.1601 90.2901 18.1201C91.5501 18.0901 92.8201 20.5701 93.0501 21.3001H93.0401Z" fill="#494949"/>
<path d="M62.0801 46.6101C62.9101 45.7201 63.9101 44.7301 63.4401 44.3901C62.9701 44.0501 61.0401 45.4501 61.0401 45.4501C61.0401 45.4501 61.9901 42.3601 61.4101 41.9101C60.8301 41.4601 59.2101 43.9801 59.2101 43.9801C59.2101 43.9801 59.0701 39.9601 57.4901 39.9201C56.3101 39.8901 56.3701 43.2801 56.3701 43.2801C56.3701 43.2801 55.2201 42.0301 54.9001 42.0901C54.5801 42.1501 55.0601 43.8701 55.0601 43.8701C55.0601 43.8701 52.8801 43.0201 52.5401 43.4901C52.2001 43.9601 53.7201 45.4101 53.7201 45.4101C53.7201 45.4101 50.6601 45.3201 50.6301 46.2901C50.6001 47.2601 53.6701 47.2901 53.6701 47.2901C53.6701 47.2901 52.4001 48.2801 52.6101 48.5001C52.8201 48.7201 54.5401 48.5601 54.5401 48.5601C54.5401 48.5601 51.9501 50.8501 52.7901 51.3601C53.6401 51.8701 55.6801 49.8601 55.6801 49.8601C55.6801 49.8601 55.1001 51.4801 55.7901 51.7701C56.4801 52.0601 56.9501 50.0901 56.9501 50.0901C56.9501 50.0901 57.2201 53.8001 58.4401 53.6201C59.6601 53.4401 59.3801 50.1601 59.3801 50.1601C59.3801 50.1601 60.2001 51.7301 60.8501 51.4301C61.5001 51.1301 61.1701 49.7701 61.1701 49.7701C61.1701 49.7701 62.8001 50.8401 63.3901 50.0801C63.9801 49.3201 61.9101 48.4001 61.9101 48.4001C61.9101 48.4001 64.3801 48.6301 64.4601 47.7201C64.5401 46.8101 62.0701 46.6301 62.0701 46.6301L62.0801 46.6101Z" fill="#494949"/>
</g>
<defs>
<clipPath id="clip0_86_4273">
<rect width="327.7" height="144.33" fill="white"/>
</clipPath>
</defs>
</svg>
